<svg width="197" height="136" viewBox="0 0 197 136" fill="none" xmlns="http://www.w3.org/2000/svg">
<g filter="url(#filter0_d_18080_67335)">
<path d="M51.9858 23.8958C51.9858 21.9489 53.5641 20.3706 55.511 20.3706H135.668C137.615 20.3706 139.193 21.9489 139.193 23.8958V33.7369L144.622 35.6955C145.243 35.9196 145.243 36.7979 144.622 37.0219L139.193 38.9806V48.9245C139.193 50.8714 137.615 52.4496 135.668 52.4496H55.511C53.5641 52.4496 51.9858 50.8714 51.9858 48.9245V23.8958Z" fill="white"/>
</g>
<path d="M67.7982 33.5975H64.4885V35.5636C64.6268 35.3792 64.831 35.2244 65.1011 35.0992C65.3777 34.9741 65.6708 34.9115 65.9803 34.9115C66.5336 34.9115 66.9815 35.0301 67.324 35.2672C67.673 35.5043 67.92 35.804 68.0649 36.1662C68.2164 36.5285 68.2922 36.9105 68.2922 37.3123C68.2922 37.7996 68.1966 38.2343 68.0056 38.6164C67.8212 38.9918 67.5413 39.2882 67.1659 39.5055C66.797 39.7229 66.3426 39.8315 65.8025 39.8315C65.0846 39.8315 64.5083 39.6537 64.0736 39.298C63.6389 38.9424 63.3787 38.4715 63.2931 37.8853H64.3897C64.4622 38.1948 64.6235 38.4418 64.8738 38.6262C65.1241 38.8041 65.437 38.893 65.8124 38.893C66.28 38.893 66.6291 38.7514 66.8596 38.4682C67.0967 38.185 67.2153 37.8095 67.2153 37.3419C67.2153 36.8677 67.0967 36.5054 66.8596 36.2551C66.6225 35.9983 66.2734 35.8698 65.8124 35.8698C65.4897 35.8698 65.2163 35.9522 64.9924 36.1168C64.775 36.2749 64.617 36.4923 64.5182 36.7689H63.4512V32.6096H67.7982V33.5975ZM69.4646 36.1366C69.4646 34.9971 69.6556 34.108 70.0376 33.4691C70.4262 32.8236 71.0914 32.5009 72.0333 32.5009C72.9751 32.5009 73.637 32.8236 74.019 33.4691C74.4076 34.108 74.6019 34.9971 74.6019 36.1366C74.6019 37.2892 74.4076 38.1915 74.019 38.8436C73.637 39.4891 72.9751 39.8118 72.0333 39.8118C71.0914 39.8118 70.4262 39.4891 70.0376 38.8436C69.6556 38.1915 69.4646 37.2892 69.4646 36.1366ZM73.4954 36.1366C73.4954 35.6031 73.4592 35.1519 73.3868 34.7831C73.3209 34.4143 73.1826 34.1146 72.9718 33.8841C72.7611 33.6469 72.4482 33.5284 72.0333 33.5284C71.6183 33.5284 71.3055 33.6469 71.0947 33.8841C70.8839 34.1146 70.7423 34.4143 70.6699 34.7831C70.604 35.1519 70.5711 35.6031 70.5711 36.1366C70.5711 36.6898 70.604 37.1542 70.6699 37.5296C70.7357 37.905 70.8741 38.208 71.0848 38.4385C71.3022 38.669 71.6183 38.7843 72.0333 38.7843C72.4482 38.7843 72.7611 38.669 72.9718 38.4385C73.1892 38.208 73.3308 37.905 73.3966 37.5296C73.4625 37.1542 73.4954 36.6898 73.4954 36.1366ZM81.2472 36.7392H79.2515V38.7843H78.2043V36.7392H76.2086V35.7908H78.2043V33.7457H79.2515V35.7908H81.2472V36.7392ZM85.1855 36.3836C85.1855 35.7118 85.3403 35.1091 85.6498 34.5756C85.966 34.0421 86.3908 33.6272 86.9243 33.3308C87.4644 33.0278 88.0538 32.8763 88.6927 32.8763C89.4238 32.8763 90.0726 33.0575 90.639 33.4197C91.212 33.7754 91.627 34.2825 91.8838 34.9412H90.5303C90.3525 34.5789 90.1055 34.3089 89.7894 34.131C89.4732 33.9532 89.1077 33.8643 88.6927 33.8643C88.2383 33.8643 87.8332 33.9664 87.4775 34.1706C87.1219 34.3747 86.842 34.6678 86.6378 35.0498C86.4402 35.4319 86.3414 35.8764 86.3414 36.3836C86.3414 36.8907 86.4402 37.3353 86.6378 37.7173C86.842 38.0993 87.1219 38.3957 87.4775 38.6065C87.8332 38.8107 88.2383 38.9127 88.6927 38.9127C89.1077 38.9127 89.4732 38.8238 89.7894 38.646C90.1055 38.4682 90.3525 38.1981 90.5303 37.8359H91.8838C91.627 38.4945 91.212 39.0017 90.639 39.3573C90.0726 39.713 89.4238 39.8908 88.6927 39.8908C88.0473 39.8908 87.4578 39.7426 86.9243 39.4462C86.3908 39.1433 85.966 38.725 85.6498 38.1915C85.3403 37.658 85.1855 37.0554 85.1855 36.3836ZM94.3284 35.1783C94.493 34.9016 94.7104 34.6876 94.9804 34.5361C95.2571 34.378 95.5831 34.299 95.9585 34.299V35.4648H95.672C95.2307 35.4648 94.8948 35.5768 94.6643 35.8007C94.4404 36.0246 94.3284 36.4132 94.3284 36.9665V39.8315H93.2021V34.3879H94.3284V35.1783ZM101.983 36.9764C101.983 37.1805 101.97 37.3649 101.943 37.5296H97.7841C97.8171 37.9643 97.9784 38.3134 98.2682 38.5768C98.558 38.8403 98.9137 38.972 99.3352 38.972C99.9412 38.972 100.369 38.7184 100.62 38.2113H101.835C101.67 38.7119 101.37 39.1235 100.936 39.4462C100.508 39.7624 99.9741 39.9205 99.3352 39.9205C98.8149 39.9205 98.3473 39.8052 97.9323 39.5747C97.524 39.3376 97.2013 39.0082 96.9641 38.5867C96.7336 38.1586 96.6184 37.6646 96.6184 37.1048C96.6184 36.5449 96.7303 36.0543 96.9543 35.6327C97.1848 35.2046 97.5042 34.8753 97.9126 34.6448C98.3275 34.4143 98.8017 34.299 99.3352 34.299C99.849 34.299 100.307 34.411 100.708 34.6349C101.11 34.8588 101.423 35.175 101.647 35.5833C101.871 35.9851 101.983 36.4494 101.983 36.9764ZM100.807 36.6207C100.801 36.2057 100.653 35.8731 100.363 35.6229C100.073 35.3726 99.714 35.2474 99.2858 35.2474C98.8972 35.2474 98.5646 35.3726 98.288 35.6229C98.0114 35.8666 97.8467 36.1992 97.794 36.6207H100.807ZM102.716 37.085C102.716 36.5384 102.828 36.0543 103.052 35.6327C103.282 35.2112 103.592 34.8852 103.98 34.6547C104.376 34.4175 104.81 34.299 105.285 34.299C105.713 34.299 106.085 34.3846 106.401 34.5559C106.724 34.7205 106.981 34.928 107.172 35.1783V34.3879H108.308V39.8315H107.172V39.0214C106.981 39.2783 106.72 39.4923 106.391 39.6636C106.062 39.8348 105.686 39.9205 105.265 39.9205C104.797 39.9205 104.369 39.8019 103.98 39.5648C103.592 39.3211 103.282 38.9852 103.052 38.5571C102.828 38.1224 102.716 37.6317 102.716 37.085ZM107.172 37.1048C107.172 36.7294 107.093 36.4033 106.934 36.1267C106.783 35.8501 106.582 35.6393 106.332 35.4944C106.082 35.3495 105.811 35.2771 105.522 35.2771C105.232 35.2771 104.962 35.3495 104.712 35.4944C104.461 35.6327 104.257 35.8402 104.099 36.1168C103.948 36.3869 103.872 36.7096 103.872 37.085C103.872 37.4605 103.948 37.7898 104.099 38.073C104.257 38.3562 104.461 38.5735 104.712 38.725C104.968 38.8699 105.238 38.9424 105.522 38.9424C105.811 38.9424 106.082 38.8699 106.332 38.725C106.582 38.5801 106.783 38.3694 106.934 38.0927C107.093 37.8095 107.172 37.4802 107.172 37.1048ZM111.101 35.3067V38.32C111.101 38.5241 111.147 38.6723 111.239 38.7646C111.338 38.8502 111.503 38.893 111.733 38.893H112.425V39.8315H111.536C111.029 39.8315 110.64 39.713 110.37 39.4759C110.1 39.2388 109.965 38.8535 109.965 38.32V35.3067H109.323V34.3879H109.965V33.0344H111.101V34.3879H112.425V35.3067H111.101ZM115.824 39.9205C115.31 39.9205 114.846 39.8052 114.431 39.5747C114.016 39.3376 113.69 39.0082 113.453 38.5867C113.216 38.1586 113.097 37.6646 113.097 37.1048C113.097 36.5515 113.219 36.0608 113.463 35.6327C113.707 35.2046 114.039 34.8753 114.461 34.6448C114.882 34.4143 115.353 34.299 115.874 34.299C116.394 34.299 116.865 34.4143 117.286 34.6448C117.708 34.8753 118.04 35.2046 118.284 35.6327C118.528 36.0608 118.65 36.5515 118.65 37.1048C118.65 37.658 118.525 38.1487 118.274 38.5768C118.024 39.005 117.681 39.3376 117.247 39.5747C116.819 39.8052 116.344 39.9205 115.824 39.9205ZM115.824 38.9424C116.114 38.9424 116.384 38.8732 116.634 38.7349C116.891 38.5966 117.099 38.3891 117.257 38.1125C117.415 37.8359 117.494 37.5 117.494 37.1048C117.494 36.7096 117.418 36.377 117.267 36.107C117.115 35.8303 116.914 35.6229 116.664 35.4845C116.414 35.3462 116.144 35.2771 115.854 35.2771C115.564 35.2771 115.294 35.3462 115.044 35.4845C114.8 35.6229 114.606 35.8303 114.461 36.107C114.316 36.377 114.243 36.7096 114.243 37.1048C114.243 37.691 114.392 38.1454 114.688 38.4682C114.991 38.7843 115.37 38.9424 115.824 38.9424ZM120.889 35.1783C121.054 34.9016 121.271 34.6876 121.541 34.5361C121.818 34.378 122.144 34.299 122.519 34.299V35.4648H122.233C121.792 35.4648 121.456 35.5768 121.225 35.8007C121.001 36.0246 120.889 36.4132 120.889 36.9665V39.8315H119.763V34.3879H120.889V35.1783ZM125.531 39.9205C125.103 39.9205 124.717 39.8447 124.375 39.6932C124.039 39.5352 123.772 39.3244 123.574 39.0609C123.377 38.7909 123.272 38.4912 123.258 38.1619H124.424C124.444 38.3924 124.553 38.5867 124.75 38.7448C124.954 38.8963 125.208 38.972 125.511 38.972C125.827 38.972 126.071 38.9127 126.242 38.7942C126.42 38.669 126.509 38.511 126.509 38.32C126.509 38.1158 126.41 37.9643 126.212 37.8655C126.021 37.7667 125.715 37.658 125.294 37.5395C124.885 37.4275 124.553 37.3188 124.296 37.2135C124.039 37.1081 123.815 36.9467 123.624 36.7294C123.439 36.512 123.347 36.2255 123.347 35.8698C123.347 35.58 123.433 35.3166 123.604 35.0795C123.775 34.8358 124.019 34.6448 124.335 34.5065C124.658 34.3682 125.027 34.299 125.442 34.299C126.061 34.299 126.558 34.4571 126.934 34.7732C127.316 35.0828 127.52 35.5076 127.546 36.0477H126.42C126.4 35.804 126.301 35.6097 126.123 35.4648C125.946 35.3199 125.705 35.2474 125.402 35.2474C125.106 35.2474 124.879 35.3034 124.721 35.4154C124.562 35.5274 124.483 35.6755 124.483 35.86C124.483 36.0049 124.536 36.1267 124.641 36.2255C124.747 36.3243 124.875 36.4033 125.027 36.4626C125.178 36.5153 125.402 36.5845 125.699 36.6701C126.094 36.7755 126.416 36.8841 126.667 36.9961C126.924 37.1015 127.144 37.2596 127.329 37.4703C127.513 37.6811 127.609 37.961 127.615 38.3101C127.615 38.6197 127.53 38.8963 127.358 39.14C127.187 39.3837 126.943 39.5747 126.627 39.713C126.318 39.8513 125.952 39.9205 125.531 39.9205Z" fill="#F06156"/>
<defs>
<filter id="filter0_d_18080_67335" x="0.567116" y="0.594175" width="195.939" height="134.917" filterUnits="userSpaceOnUse" color-interpolation-filters="sRGB">
<feFlood flood-opacity="0" result="BackgroundImageFix"/>
<feColorMatrix in="SourceAlpha" type="matrix" values="0 0 0 0 0 0 0 0 0 0 0 0 0 0 0 0 0 0 127 0" result="hardAlpha"/>
<feOffset dy="31.6423"/>
<feGaussianBlur stdDeviation="25.7094"/>
<feColorMatrix type="matrix" values="0 0 0 0 0 0 0 0 0 0 0 0 0 0 0 0 0 0 0.05 0"/>
<feBlend mode="normal" in2="BackgroundImageFix" result="effect1_dropShadow_18080_67335"/>
<feBlend mode="normal" in="SourceGraphic" in2="effect1_dropShadow_18080_67335" result="shape"/>
</filter>
</defs>
</svg>
